P1
# Comentário: imagem 3 e a resposta é XXXBBBPBXBPPXXBPBPPPPXXBPXBPBXBPB
5 7
0 0 0 0 0 1 1
0 1 0 0 0 1 1 
0 1 1 1 1 1 1
0 1 0 1 0 0 0
0 0 0 1 0 0 0