P1
# Comentário: imagem 2 e a resposta é XXBBBPPBP
3 3 
0 0 1
0 1 1
0 0 1
